<svg xmlns="http://www.w3.org/2000/svg" xmlns:xlink="http://www.w3.org/1999/xlink"><defs><style>
    .sprite-symbol-usage {display: none;}
    .sprite-symbol-usage:target {display: inline;}
  </style><symbol viewBox="0 0 8 12" fill="none" id="arrow">
<path d="M5.07412 6.07988L0.536621 1.54238L1.83279 0.246216L7.66645 6.07988L1.83279 11.9135L0.536621 10.6174L5.07412 6.07988Z" fill="currentColor" />
</symbol><symbol viewBox="0 0 32 32" id="clock">
    <path d="M16,0a15.84,15.84,0,0,1,15.6,16A15.83,15.83,0,0,1,15.9,32,15.83,15.83,0,0,1,.37,16,15.83,15.83,0,0,1,16,0Zm13,16A13.21,13.21,0,0,0,16.35,2.62,13.13,13.13,0,0,0,3,15.15,13.22,13.22,0,0,0,15.37,29.37,13.2,13.2,0,0,0,29.07,16Z" fill="currentColor" />
    <path d="M16.93,11.53v2.69a.35.35,0,0,0,.15.33,1.77,1.77,0,0,1,.67,1.81,1.73,1.73,0,0,1-1.41,1.43A.65.65,0,0,0,16,18c-1.2,1.24-2.41,2.47-3.62,3.71a.92.92,0,0,1-1.07.23,1,1,0,0,1-.25-1.59l3.19-3.27a.3.3,0,0,0,.08-.39,1.79,1.79,0,0,1,.54-2.09.46.46,0,0,0,.19-.41c0-1.78,0-3.57,0-5.35a.93.93,0,0,1,1.82-.29,2,2,0,0,1,0,.48C16.94,9.85,16.93,10.69,16.93,11.53Z" fill="currentColor" />
</symbol><symbol viewBox="0 0 20 13" fill="none" id="menu">
<rect x="0.0175781" width="19.2167" height="2.08877" rx="1.04438" fill="#0067A5" />
<rect x="0.0175781" y="5.22192" width="19.2167" height="2.08877" rx="1.04438" fill="#0067A5" />
<rect x="0.0175781" y="10.4438" width="19.2167" height="2.08877" rx="1.04438" fill="#0067A5" />
</symbol><symbol viewBox="0 0 25 26" fill="none" id="rub">
<path d="M11.6323 0.686623C15.7597 0.681913 18.5388 1.79346 20.8456 4.04483C23.4963 6.6306 24.7254 9.84751 24.5832 13.5966C24.3539 19.8468 19.2634 25.5741 12.1138 25.3339C9.15125 25.235 6.54639 24.1234 4.39097 22.0275C1.7219 19.4323 0.451575 16.2201 0.593741 12.4427C0.827628 6.1125 5.98231 0.620683 11.6323 0.686623ZM12.5908 22.8235C17.7959 22.847 22.0976 18.5327 22.1572 13.1351C22.2214 7.47839 17.7821 3.19703 12.6183 3.1829C7.31226 3.17348 3.06561 7.55375 3.01974 12.9137C2.97388 18.4715 7.37188 22.847 12.5908 22.8235Z" fill="currentColor" />
<path d="M13.7923 15.6644C13.0265 15.6644 12.2652 15.6691 11.4993 15.6597C11.3755 15.6597 11.3434 15.6927 11.3342 15.8198C11.2884 16.6488 11.3296 17.4825 11.2884 18.3161C11.2654 18.773 11.1324 19.1922 10.6922 19.39C10.2703 19.5831 9.51816 19.5548 9.22924 18.8907C9.13293 18.6694 9.07331 18.4621 9.07331 18.2219C9.0779 17.4212 9.06414 16.6158 9.05956 15.8151C9.05956 15.6974 9.03204 15.6597 8.90822 15.6597C8.61013 15.6597 8.30745 15.6833 8.00936 15.6362C7.83967 15.6079 7.72502 15.5043 7.70668 15.3441C7.66082 14.9956 7.67458 14.6424 7.69751 14.2938C7.70668 14.1666 7.7663 14.1195 7.89471 14.1054C8.2249 14.0583 8.55509 14.0866 8.88529 14.0819C9.01369 14.0819 9.07331 14.0583 9.05956 13.9123C9.0458 13.771 9.0458 13.6297 9.05956 13.4884C9.06873 13.3518 9.0137 13.3283 8.89446 13.3283C8.60095 13.3283 8.30745 13.3565 8.01394 13.3047C7.84885 13.2765 7.72044 13.154 7.70209 12.9797C7.66541 12.6406 7.67458 12.3015 7.70209 11.9624C7.71127 11.8493 7.78006 11.7928 7.88553 11.7693C8.11025 11.7222 8.33955 11.7599 8.56885 11.7457C8.72478 11.7363 8.92198 11.8117 9.02287 11.7175C9.12376 11.6186 9.05497 11.416 9.05497 11.2559C9.05956 10.5164 9.04121 9.77225 9.05956 9.03279C9.07331 8.51469 9.05497 7.99659 9.09624 7.48321C9.13293 7.03105 9.51816 6.6307 9.96759 6.59773C11.215 6.50824 12.4624 6.5365 13.7144 6.54592C14.2463 6.55063 14.7783 6.57889 15.3011 6.71548C16.3101 6.97924 16.9613 7.62451 17.2915 8.63244C17.4703 9.17879 17.4657 9.73928 17.4336 10.3092C17.4061 10.8084 17.3144 11.2841 17.0667 11.7175C16.6265 12.4899 15.9523 12.9515 15.1269 13.2011C14.6132 13.3565 14.0812 13.4036 13.5493 13.4131C12.8522 13.4225 12.1551 13.4272 11.458 13.4272C11.3388 13.4272 11.2792 13.4507 11.2929 13.592C11.3113 13.7522 11.2287 13.9547 11.325 14.0583C11.4214 14.1619 11.6231 14.0913 11.7745 14.0913C13.2237 14.096 14.6728 14.0913 16.122 14.096C16.3972 14.096 16.6723 14.1195 16.9475 14.1195C17.0943 14.1195 17.1218 14.2232 17.1264 14.3221C17.1355 14.6659 17.1401 15.0144 17.1264 15.3583C17.1218 15.5655 17.0025 15.6362 16.7457 15.6503C16.0624 15.6833 15.3791 15.6785 14.6912 15.6785C14.4023 15.6644 14.0996 15.6644 13.7923 15.6644ZM12.0588 11.6892C12.6045 11.6986 13.1457 11.6751 13.6868 11.5856C14.5261 11.4537 15.0993 11.0298 15.1865 10.182C15.2782 9.30125 15.0214 8.50998 13.9666 8.32158C13.1228 8.17086 12.2744 8.20854 11.4259 8.18028C11.325 8.17557 11.3067 8.22267 11.3067 8.31216C11.3113 9.39074 11.3113 10.4693 11.3067 11.5526C11.3067 11.6657 11.348 11.6892 11.4443 11.6845C11.6507 11.6845 11.857 11.6892 12.0588 11.6892Z" fill="currentColor" />
</symbol></defs><use id="arrow-usage" xlink:href="#arrow" class="sprite-symbol-usage" /><use id="clock-usage" xlink:href="#clock" class="sprite-symbol-usage" /><use id="menu-usage" xlink:href="#menu" class="sprite-symbol-usage" /><use id="rub-usage" xlink:href="#rub" class="sprite-symbol-usage" /></svg>