<svg xmlns="http://www.w3.org/2000/svg" xmlns:xlink="http://www.w3.org/1999/xlink"><defs><style>
    .sprite-symbol-usage {display: none;}
    .sprite-symbol-usage:target {display: inline;}
  </style><symbol viewBox="0 0 8 12" fill="none" id="arrow">
<path d="M5.07412 6.07988L0.536621 1.54238L1.83279 0.246216L7.66645 6.07988L1.83279 11.9135L0.536621 10.6174L5.07412 6.07988Z" fill="currentColor" />
</symbol><symbol viewBox="0 0 32 32" id="clock">
    <path d="M16,0a15.84,15.84,0,0,1,15.6,16A15.83,15.83,0,0,1,15.9,32,15.83,15.83,0,0,1,.37,16,15.83,15.83,0,0,1,16,0Zm13,16A13.21,13.21,0,0,0,16.35,2.62,13.13,13.13,0,0,0,3,15.15,13.22,13.22,0,0,0,15.37,29.37,13.2,13.2,0,0,0,29.07,16Z" fill="currentColor" />
    <path d="M16.93,11.53v2.69a.35.35,0,0,0,.15.33,1.77,1.77,0,0,1,.67,1.81,1.73,1.73,0,0,1-1.41,1.43A.65.65,0,0,0,16,18c-1.2,1.24-2.41,2.47-3.62,3.71a.92.92,0,0,1-1.07.23,1,1,0,0,1-.25-1.59l3.19-3.27a.3.3,0,0,0,.08-.39,1.79,1.79,0,0,1,.54-2.09.46.46,0,0,0,.19-.41c0-1.78,0-3.57,0-5.35a.93.93,0,0,1,1.82-.29,2,2,0,0,1,0,.48C16.94,9.85,16.93,10.69,16.93,11.53Z" fill="currentColor" />
</symbol><symbol viewBox="0 0 9 9" fill="none" id="close">
<path d="M5.18599 4.07316L8.49226 0.78497C8.65077 0.628059 8.65077 0.374046 8.49226 0.217535C8.33415 0.0606237 8.07733 0.0606237 7.91922 0.217535L4.61578 3.50293L1.28179 0.168567C1.12368 0.0100546 0.866863 0.0100546 0.708751 0.168567C0.550639 0.327479 0.550639 0.584695 0.708751 0.743207L4.04031 4.07517L0.696709 7.40029C0.538597 7.5572 0.538597 7.81121 0.696709 7.96772C0.854821 8.12463 1.11164 8.12463 1.26975 7.96772L4.61051 4.6454L7.93123 7.96652C8.08934 8.12503 8.34616 8.12503 8.50427 7.96652C8.66238 7.80761 8.66238 7.55039 8.50427 7.39188L5.18599 4.07316Z" fill="currentColor" />
</symbol><symbol viewBox="0 0 18 20" fill="none" id="copy">
<path d="M4 4V0.999999C4 0.734783 4.10536 0.480429 4.29289 0.292893C4.48043 0.105357 4.73478 0 5 0H17C17.2652 0 17.5196 0.105357 17.7071 0.292893C17.8946 0.480429 18 0.734783 18 0.999999V15C18 15.2652 17.8946 15.5196 17.7071 15.7071C17.5196 15.8946 17.2652 16 17 16H14V19C14 19.552 13.55 20 12.993 20H1.007C0.875127 20.0008 0.744397 19.9755 0.622322 19.9256C0.500247 19.8757 0.389233 19.8022 0.295659 19.7093C0.202084 19.6164 0.127793 19.5059 0.0770543 19.3841C0.0263156 19.2624 0.000129374 19.1319 0 19L0.00300002 5C0.00300002 4.448 0.453 4 1.01 4H4ZM2.003 6L2 18H12V6H2.003ZM6 4H14V14H16V2H6V4Z" fill="currentColor" />
</symbol><symbol viewBox="0 0 32 32" fill="none" id="download">
<path d="M-0.109863 19.712C-0.0560901 19.5438 -0.0187476 19.3685 0.0544437 19.2075C0.396501 18.4565 1.22401 18.0533 2.06646 18.2143C2.89247 18.3725 3.49593 19.0622 3.5019 19.8887C3.51236 21.0671 3.50489 22.247 3.50638 23.4255C3.50638 24.7208 3.50638 26.0161 3.50788 27.3114C3.50788 27.3541 3.51236 27.3969 3.51535 27.4482C11.5485 27.4482 19.5696 27.4482 27.6117 27.4482C27.6117 27.005 27.6117 26.569 27.6117 26.1329C27.6117 24.0681 27.6087 22.0033 27.6132 19.9385C27.6147 19.0109 28.3003 18.2799 29.2413 18.1844C30.1674 18.0903 30.9905 18.6874 31.1951 19.6008C31.2011 19.6279 31.2145 19.6521 31.225 19.6778C31.225 22.921 31.225 26.1657 31.225 29.409C31.2145 29.4403 31.1996 29.4702 31.1921 29.5016C31.0069 30.3423 30.2959 30.9023 29.3937 30.9023C26.7543 30.9052 24.115 30.9038 21.4771 30.9038C17.5277 30.9038 13.5769 30.9038 9.62757 30.9038C6.99417 30.9038 4.36078 30.9052 1.72739 30.9023C0.847598 30.9009 0.139585 30.3594 -0.0605712 29.5486C-0.0755082 29.4902 -0.0934326 29.4332 -0.109863 29.3748C-0.109863 26.1557 -0.109863 22.9338 -0.109863 19.712Z" fill="currentColor" />
<path d="M15.8011 0.182617C16.0117 0.255291 16.2388 0.302316 16.4315 0.406339C17.0558 0.742634 17.3606 1.27273 17.3635 1.95244C17.3695 3.3532 17.365 4.75253 17.365 6.15328C17.365 9.61314 17.365 13.0716 17.3665 16.5314C17.3665 16.5642 17.3695 16.597 17.3725 16.6696C17.4457 16.6027 17.498 16.5571 17.5473 16.51C18.8767 15.2418 20.2016 13.9693 21.5354 12.7068C22.4197 11.8703 23.8193 12.0527 24.4123 13.0716C24.8052 13.747 24.6767 14.5678 24.0762 15.1463C23.3085 15.8859 22.5347 16.6198 21.764 17.3551C20.1478 18.8969 18.5316 20.4401 16.9169 21.982C16.0924 22.7686 15.0184 22.7643 14.1924 21.9748C11.8174 19.7048 9.44394 17.4391 7.06747 15.1748C6.59695 14.726 6.39381 14.1944 6.51928 13.5732C6.65371 12.9091 7.07792 12.456 7.75457 12.2593C8.44466 12.0584 9.06454 12.2166 9.57838 12.7025C10.3775 13.4592 11.1707 14.2201 11.9668 14.9796C12.5045 15.4926 13.0408 16.0056 13.5785 16.5186C13.6233 16.5613 13.6681 16.6012 13.7353 16.6611C13.7413 16.5898 13.7488 16.5428 13.7488 16.4972C13.7488 12.5899 13.7488 8.68262 13.7488 4.77533C13.7488 3.85052 13.7488 2.92713 13.7488 2.00232C13.7488 1.06325 14.3 0.413464 15.2679 0.208267C15.2843 0.205417 15.2978 0.192592 15.3127 0.184042C15.4755 0.182617 15.6383 0.182617 15.8011 0.182617Z" fill="currentColor" />
<path d="M-0.109863 29.3777C-0.0934326 29.4361 -0.0755082 29.4931 -0.0605712 29.5515C0.138091 30.3623 0.846105 30.9038 1.72739 30.9052C4.36078 30.9081 6.99417 30.9067 9.62757 30.9067C13.5769 30.9067 17.5277 30.9067 21.4771 30.9067C24.1165 30.9067 26.7558 30.9081 29.3937 30.9052C30.2959 30.9038 31.0069 30.3438 31.1921 29.5045C31.1996 29.4731 31.2145 29.4432 31.225 29.4119C31.225 30.0759 31.225 30.7399 31.225 31.404C20.781 31.404 10.3356 31.404 -0.10837 31.404C-0.109863 30.7285 -0.109863 30.0531 -0.109863 29.3777Z" fill="currentColor" />
</symbol><symbol viewBox="0 0 24 24" fill="none" id="expand">
<path d="M8.748 13.548L2.4 19.908V18C2.4 17.6817 2.27357 17.3765 2.04853 17.1515C1.82348 16.9264 1.51826 16.8 1.2 16.8C0.88174 16.8 0.576515 16.9264 0.351472 17.1515C0.126428 17.3765 0 17.6817 0 18V22.8C0.00189598 22.9568 0.0345107 23.1117 0.0959999 23.256C0.21777 23.5492 0.450781 23.7822 0.744 23.904C0.888267 23.9655 1.04319 23.9981 1.2 24H6C6.31826 24 6.62348 23.8736 6.84853 23.6485C7.07357 23.4235 7.2 23.1183 7.2 22.8C7.2 22.4817 7.07357 22.1765 6.84853 21.9515C6.62348 21.7264 6.31826 21.6 6 21.6H4.092L10.452 15.252C10.678 15.026 10.8049 14.7196 10.8049 14.4C10.8049 14.0804 10.678 13.774 10.452 13.548C10.226 13.322 9.91956 13.1951 9.6 13.1951C9.28044 13.1951 8.97396 13.322 8.748 13.548ZM4.092 2.4H6C6.31826 2.4 6.62348 2.27357 6.84853 2.04853C7.07357 1.82348 7.2 1.51826 7.2 1.2C7.2 0.88174 7.07357 0.576515 6.84853 0.351472C6.62348 0.126428 6.31826 0 6 0H1.2C1.04319 0.00189598 0.888267 0.0345107 0.744 0.0959999C0.450781 0.21777 0.21777 0.450781 0.0959999 0.744C0.0345107 0.888267 0.00189598 1.04319 0 1.2V6C0 6.31826 0.126428 6.62348 0.351472 6.84853C0.576515 7.07357 0.88174 7.2 1.2 7.2C1.51826 7.2 1.82348 7.07357 2.04853 6.84853C2.27357 6.62348 2.4 6.31826 2.4 6V4.092L8.748 10.452C8.85956 10.5645 8.99228 10.6537 9.13851 10.7147C9.28474 10.7756 9.44159 10.807 9.6 10.807C9.75841 10.807 9.91526 10.7756 10.0615 10.7147C10.2077 10.6537 10.3404 10.5645 10.452 10.452C10.5645 10.3404 10.6537 10.2077 10.7147 10.0615C10.7756 9.91526 10.807 9.75841 10.807 9.6C10.807 9.44159 10.7756 9.28474 10.7147 9.13851C10.6537 8.99228 10.5645 8.85956 10.452 8.748L4.092 2.4ZM22.8 16.8C22.4817 16.8 22.1765 16.9264 21.9515 17.1515C21.7264 17.3765 21.6 17.6817 21.6 18V19.908L15.252 13.548C15.026 13.322 14.7196 13.1951 14.4 13.1951C14.0804 13.1951 13.774 13.322 13.548 13.548C13.322 13.774 13.1951 14.0804 13.1951 14.4C13.1951 14.7196 13.322 15.026 13.548 15.252L19.908 21.6H18C17.6817 21.6 17.3765 21.7264 17.1515 21.9515C16.9264 22.1765 16.8 22.4817 16.8 22.8C16.8 23.1183 16.9264 23.4235 17.1515 23.6485C17.3765 23.8736 17.6817 24 18 24H22.8C22.9568 23.9981 23.1117 23.9655 23.256 23.904C23.5492 23.7822 23.7822 23.5492 23.904 23.256C23.9655 23.1117 23.9981 22.9568 24 22.8V18C24 17.6817 23.8736 17.3765 23.6485 17.1515C23.4235 16.9264 23.1183 16.8 22.8 16.8ZM23.904 0.744C23.7822 0.450781 23.5492 0.21777 23.256 0.0959999C23.1117 0.0345107 22.9568 0.00189598 22.8 0H18C17.6817 0 17.3765 0.126428 17.1515 0.351472C16.9264 0.576515 16.8 0.88174 16.8 1.2C16.8 1.51826 16.9264 1.82348 17.1515 2.04853C17.3765 2.27357 17.6817 2.4 18 2.4H19.908L13.548 8.748C13.4355 8.85956 13.3463 8.99228 13.2853 9.13851C13.2244 9.28474 13.193 9.44159 13.193 9.6C13.193 9.75841 13.2244 9.91526 13.2853 10.0615C13.3463 10.2077 13.4355 10.3404 13.548 10.452C13.6596 10.5645 13.7923 10.6537 13.9385 10.7147C14.0847 10.7756 14.2416 10.807 14.4 10.807C14.5584 10.807 14.7153 10.7756 14.8615 10.7147C15.0077 10.6537 15.1404 10.5645 15.252 10.452L21.6 4.092V6C21.6 6.31826 21.7264 6.62348 21.9515 6.84853C22.1765 7.07357 22.4817 7.2 22.8 7.2C23.1183 7.2 23.4235 7.07357 23.6485 6.84853C23.8736 6.62348 24 6.31826 24 6V1.2C23.9981 1.04319 23.9655 0.888267 23.904 0.744Z" fill="currentColor" />
</symbol><symbol viewBox="0 0 23 24" fill="none" id="fb">
<path d="M8.41931 11.6481C8.41931 12.9354 8.41931 14.0476 8.41931 15.2561C9.31409 15.2561 10.2004 15.2561 11.1459 15.2561C11.1459 17.9621 11.1459 20.5717 11.1459 23.2339C10.9095 23.2515 10.69 23.2777 10.4621 23.2777C7.95504 23.2777 5.44797 23.2952 2.94934 23.269C1.20199 23.2515 0.0286484 22.0605 0.0202071 20.2565C-0.00511682 14.5205 -0.00511621 8.77577 0.0117664 3.03979C0.0202077 1.30586 1.21043 0.0710874 2.89025 0.0623302C8.42775 0.0448157 13.9653 0.0448157 19.4943 0.0623302C21.2163 0.0710874 22.3897 1.31461 22.3897 3.10984C22.3981 8.78452 22.4066 14.468 22.3812 20.1426C22.3728 22.0692 21.2163 23.2427 19.3761 23.2602C18.0931 23.2777 16.8184 23.2602 15.4594 23.2602C15.4594 20.6155 15.4594 18.0059 15.4594 15.3437C15.5691 15.3262 15.7126 15.2561 15.8392 15.2824C17.1898 15.5714 17.8567 14.9146 18.1521 13.601C18.2956 12.9705 18.5995 12.375 18.8697 11.6656C17.6879 11.6656 16.5905 11.6656 15.4087 11.6656C15.4087 10.6411 15.3496 9.67776 15.4509 8.73198C15.4762 8.46926 15.9574 8.11897 16.2782 8.05767C16.8691 7.95259 17.4853 8.02264 18.1437 8.02264C18.1437 6.80539 18.1437 5.67571 18.1437 4.41467C16.1938 4.4497 14.1594 3.97681 12.4965 5.63192C10.8166 7.29579 11.2894 9.47634 11.1881 11.6219C10.268 11.6481 9.38162 11.6481 8.41931 11.6481Z" fill="currentColor" />
</symbol><symbol viewBox="0 0 23 24" fill="none" id="inst">
<path d="M22.8299 11.8015C22.8299 13.1588 22.8467 14.5162 22.8299 15.8736C22.7623 19.9107 20.1709 22.9494 16.2963 23.1946C13.1899 23.3873 10.0582 23.3698 6.9602 23.1946C3.43173 22.9932 0.77272 20.331 0.553246 16.7318C0.350655 13.3953 0.342213 10.0238 0.553246 6.68725C0.789603 2.9917 3.33044 0.373294 6.86735 0.154364C10.0244 -0.0470526 13.2237 -0.0558098 16.3807 0.154364C20.2215 0.408323 22.7623 3.44708 22.8383 7.45789C22.8552 8.90283 22.8299 10.3565 22.8299 11.8015ZM11.6789 2.24734C10.3367 2.24734 8.99455 2.22983 7.66083 2.24734C4.61351 2.29113 2.57916 4.41037 2.56228 7.57173C2.54539 10.2865 2.54539 13.01 2.56228 15.7247C2.5876 18.9211 4.64728 21.0666 7.72836 21.0841C10.3536 21.1016 12.9704 21.1016 15.5957 21.0841C18.6345 21.0579 20.7111 18.9298 20.7364 15.7948C20.7617 13.0187 20.7617 10.2339 20.7364 7.45789C20.7027 4.41037 18.643 2.29113 15.7054 2.24734C14.3548 2.22983 13.0211 2.24734 11.6789 2.24734Z" fill="currentColor" />
<path d="M11.6452 5.87282C14.7178 5.88158 17.2671 8.54378 17.2333 11.7226C17.1995 14.884 14.684 17.4674 11.6452 17.4674C8.56408 17.4674 6.03169 14.8139 6.05701 11.6263C6.08234 8.48248 8.62317 5.86407 11.6452 5.87282ZM11.6283 15.2868C13.5529 15.2868 15.1314 13.658 15.123 11.6701C15.1145 9.68222 13.5276 8.04462 11.6114 8.06213C9.72898 8.07964 8.17578 9.69097 8.1589 11.6351C8.14201 13.6317 9.7121 15.2781 11.6283 15.2868Z" fill="currentColor" />
<path d="M17.6638 6.4946C17.3261 6.02171 16.921 5.69769 16.9716 5.47C17.0307 5.1635 17.4443 4.93581 17.6976 4.6731C17.9255 4.93581 18.3222 5.18101 18.3391 5.45249C18.3644 5.73272 17.993 6.03047 17.6638 6.4946Z" fill="currentColor" />
</symbol><symbol viewBox="0 0 20 13" fill="none" id="menu">
<rect x="0.0175781" width="19.2167" height="2.08877" rx="1.04438" fill="#0067A5" />
<rect x="0.0175781" y="5.22192" width="19.2167" height="2.08877" rx="1.04438" fill="#0067A5" />
<rect x="0.0175781" y="10.4438" width="19.2167" height="2.08877" rx="1.04438" fill="#0067A5" />
</symbol><symbol viewBox="0 0 14 15" fill="none" id="phone">
<path d="M11.9718 8.14022C11.8251 8.14022 11.6718 8.09356 11.5251 8.06022C11.2281 7.99477 10.9362 7.90788 10.6518 7.80022C10.3425 7.68771 10.0026 7.69355 9.69733 7.81663C9.3921 7.9397 9.14318 8.17131 8.99845 8.46689L8.85179 8.76689C8.20245 8.40567 7.60578 7.95704 7.07845 7.43356C6.55497 6.90623 6.10633 6.30955 5.74512 5.66022L6.02512 5.47356C6.3207 5.32883 6.55231 5.07991 6.67538 4.77468C6.79846 4.46946 6.8043 4.1295 6.69179 3.82022C6.58593 3.53517 6.49908 3.24342 6.43179 2.94689C6.39845 2.80022 6.37179 2.64689 6.35179 2.49356C6.27083 2.02397 6.02487 1.59872 5.6582 1.29438C5.29153 0.990046 4.82825 0.826628 4.35179 0.833555H2.35179C2.06447 0.830857 1.77995 0.890097 1.51759 1.00724C1.25523 1.12439 1.02119 1.29669 0.831406 1.51241C0.64162 1.72813 0.500542 1.98222 0.417778 2.25736C0.335014 2.53251 0.312506 2.82226 0.351786 3.10689C0.706945 5.89981 1.98247 8.49481 3.97689 10.482C5.9713 12.4692 8.57093 13.7352 11.3651 14.0802H11.6185C12.1101 14.0809 12.5847 13.9006 12.9518 13.5736C13.1627 13.3849 13.3312 13.1537 13.4461 12.8951C13.561 12.6365 13.6198 12.3565 13.6185 12.0736V10.0736C13.6103 9.61048 13.4417 9.16459 13.1413 8.812C12.841 8.45941 12.4277 8.22197 11.9718 8.14022ZM12.3051 12.1402C12.305 12.2349 12.2847 12.3284 12.2456 12.4146C12.2066 12.5008 12.1496 12.5777 12.0785 12.6402C12.0054 12.7068 11.9184 12.7563 11.8239 12.7851C11.7293 12.8139 11.6296 12.8214 11.5318 12.8069C9.03505 12.4868 6.71594 11.3445 4.94026 9.56042C3.16458 7.77629 2.03339 5.45178 1.72512 2.95356C1.71451 2.8559 1.72381 2.75711 1.75245 2.66315C1.7811 2.56919 1.8285 2.48201 1.89179 2.40689C1.95426 2.33578 2.03116 2.27878 2.11737 2.2397C2.20358 2.20062 2.29713 2.18034 2.39179 2.18022H4.39179C4.54682 2.17677 4.6982 2.22747 4.81988 2.3236C4.94156 2.41973 5.02593 2.55527 5.05845 2.70689C5.08512 2.88911 5.11845 3.06911 5.15845 3.24689C5.23547 3.59832 5.33796 3.94367 5.46512 4.28022L4.53179 4.71356C4.45198 4.75017 4.3802 4.80219 4.32056 4.86662C4.26091 4.93105 4.21459 5.00663 4.18423 5.08902C4.15388 5.17141 4.1401 5.25898 4.14368 5.3467C4.14727 5.43443 4.16815 5.52059 4.20512 5.60022C5.16459 7.65539 6.81662 9.30742 8.87179 10.2669C9.03409 10.3336 9.21615 10.3336 9.37845 10.2669C9.46159 10.2372 9.538 10.1912 9.60323 10.1317C9.66847 10.0722 9.72123 10.0003 9.75845 9.92022L10.1718 8.98689C10.5164 9.11014 10.8682 9.21255 11.2251 9.29356C11.4029 9.33356 11.5829 9.36689 11.7651 9.39356C11.9167 9.42608 12.0523 9.51045 12.1484 9.63213C12.2445 9.75381 12.2952 9.90519 12.2918 10.0602L12.3051 12.1402ZM11.6785 6.14022C11.8553 6.14022 12.0248 6.06998 12.1499 5.94496C12.2749 5.81994 12.3451 5.65037 12.3451 5.47356V2.80689C12.3451 2.63008 12.2749 2.46051 12.1499 2.33548C12.0248 2.21046 11.8553 2.14022 11.6785 2.14022C11.5016 2.14022 11.3321 2.21046 11.207 2.33548C11.082 2.46051 11.0118 2.63008 11.0118 2.80689V5.47356C11.0118 5.65037 11.082 5.81994 11.207 5.94496C11.3321 6.06998 11.5016 6.14022 11.6785 6.14022ZM9.01179 6.14022C9.1886 6.14022 9.35817 6.06998 9.48319 5.94496C9.60822 5.81994 9.67845 5.65037 9.67845 5.47356V2.80689C9.67845 2.63008 9.60822 2.46051 9.48319 2.33548C9.35817 2.21046 9.1886 2.14022 9.01179 2.14022C8.83498 2.14022 8.66541 2.21046 8.54038 2.33548C8.41536 2.46051 8.34512 2.63008 8.34512 2.80689V5.47356C8.34512 5.65037 8.41536 5.81994 8.54038 5.94496C8.66541 6.06998 8.83498 6.14022 9.01179 6.14022Z" fill="#0067A5" />
</symbol><symbol viewBox="0 0 25 26" fill="none" id="rub">
<path d="M11.6323 0.686623C15.7597 0.681913 18.5388 1.79346 20.8456 4.04483C23.4963 6.6306 24.7254 9.84751 24.5832 13.5966C24.3539 19.8468 19.2634 25.5741 12.1138 25.3339C9.15125 25.235 6.54639 24.1234 4.39097 22.0275C1.7219 19.4323 0.451575 16.2201 0.593741 12.4427C0.827628 6.1125 5.98231 0.620683 11.6323 0.686623ZM12.5908 22.8235C17.7959 22.847 22.0976 18.5327 22.1572 13.1351C22.2214 7.47839 17.7821 3.19703 12.6183 3.1829C7.31226 3.17348 3.06561 7.55375 3.01974 12.9137C2.97388 18.4715 7.37188 22.847 12.5908 22.8235Z" fill="currentColor" />
<path d="M13.7923 15.6644C13.0265 15.6644 12.2652 15.6691 11.4993 15.6597C11.3755 15.6597 11.3434 15.6927 11.3342 15.8198C11.2884 16.6488 11.3296 17.4825 11.2884 18.3161C11.2654 18.773 11.1324 19.1922 10.6922 19.39C10.2703 19.5831 9.51816 19.5548 9.22924 18.8907C9.13293 18.6694 9.07331 18.4621 9.07331 18.2219C9.0779 17.4212 9.06414 16.6158 9.05956 15.8151C9.05956 15.6974 9.03204 15.6597 8.90822 15.6597C8.61013 15.6597 8.30745 15.6833 8.00936 15.6362C7.83967 15.6079 7.72502 15.5043 7.70668 15.3441C7.66082 14.9956 7.67458 14.6424 7.69751 14.2938C7.70668 14.1666 7.7663 14.1195 7.89471 14.1054C8.2249 14.0583 8.55509 14.0866 8.88529 14.0819C9.01369 14.0819 9.07331 14.0583 9.05956 13.9123C9.0458 13.771 9.0458 13.6297 9.05956 13.4884C9.06873 13.3518 9.0137 13.3283 8.89446 13.3283C8.60095 13.3283 8.30745 13.3565 8.01394 13.3047C7.84885 13.2765 7.72044 13.154 7.70209 12.9797C7.66541 12.6406 7.67458 12.3015 7.70209 11.9624C7.71127 11.8493 7.78006 11.7928 7.88553 11.7693C8.11025 11.7222 8.33955 11.7599 8.56885 11.7457C8.72478 11.7363 8.92198 11.8117 9.02287 11.7175C9.12376 11.6186 9.05497 11.416 9.05497 11.2559C9.05956 10.5164 9.04121 9.77225 9.05956 9.03279C9.07331 8.51469 9.05497 7.99659 9.09624 7.48321C9.13293 7.03105 9.51816 6.6307 9.96759 6.59773C11.215 6.50824 12.4624 6.5365 13.7144 6.54592C14.2463 6.55063 14.7783 6.57889 15.3011 6.71548C16.3101 6.97924 16.9613 7.62451 17.2915 8.63244C17.4703 9.17879 17.4657 9.73928 17.4336 10.3092C17.4061 10.8084 17.3144 11.2841 17.0667 11.7175C16.6265 12.4899 15.9523 12.9515 15.1269 13.2011C14.6132 13.3565 14.0812 13.4036 13.5493 13.4131C12.8522 13.4225 12.1551 13.4272 11.458 13.4272C11.3388 13.4272 11.2792 13.4507 11.2929 13.592C11.3113 13.7522 11.2287 13.9547 11.325 14.0583C11.4214 14.1619 11.6231 14.0913 11.7745 14.0913C13.2237 14.096 14.6728 14.0913 16.122 14.096C16.3972 14.096 16.6723 14.1195 16.9475 14.1195C17.0943 14.1195 17.1218 14.2232 17.1264 14.3221C17.1355 14.6659 17.1401 15.0144 17.1264 15.3583C17.1218 15.5655 17.0025 15.6362 16.7457 15.6503C16.0624 15.6833 15.3791 15.6785 14.6912 15.6785C14.4023 15.6644 14.0996 15.6644 13.7923 15.6644ZM12.0588 11.6892C12.6045 11.6986 13.1457 11.6751 13.6868 11.5856C14.5261 11.4537 15.0993 11.0298 15.1865 10.182C15.2782 9.30125 15.0214 8.50998 13.9666 8.32158C13.1228 8.17086 12.2744 8.20854 11.4259 8.18028C11.325 8.17557 11.3067 8.22267 11.3067 8.31216C11.3113 9.39074 11.3113 10.4693 11.3067 11.5526C11.3067 11.6657 11.348 11.6892 11.4443 11.6845C11.6507 11.6845 11.857 11.6892 12.0588 11.6892Z" fill="currentColor" />
</symbol><symbol viewBox="0 0 11 11" fill="none" id="search">
<path d="M0.293333 9.95391L2.27965 7.98216C1.50863 7.02008 1.13524 5.79892 1.23627 4.56979C1.33729 3.34066 1.90505 2.19698 2.8228 1.37391C3.74055 0.550847 4.93853 0.110955 6.17042 0.144689C7.4023 0.178424 8.57445 0.68322 9.44585 1.55528C10.3173 2.42734 10.8217 3.60039 10.8554 4.83321C10.8891 6.06603 10.4495 7.26492 9.62708 8.18336C8.80464 9.10181 7.66183 9.67 6.43363 9.7711C5.20543 9.8722 3.9852 9.49853 3.02385 8.72692L1.05359 10.6987C1.00382 10.7489 0.944609 10.7888 0.879365 10.816C0.814122 10.8432 0.744143 10.8572 0.673465 10.8572C0.602786 10.8572 0.532806 10.8432 0.467564 10.816C0.402321 10.7888 0.343105 10.7489 0.293333 10.6987C0.196834 10.5988 0.142893 10.4653 0.142893 10.3263C0.142893 10.1873 0.196834 10.0538 0.293333 9.95391ZM6.02742 8.72692C6.76866 8.72692 7.49326 8.50696 8.10957 8.09483C8.72589 7.68271 9.20625 7.09694 9.48991 6.41161C9.77357 5.72627 9.84779 4.97215 9.70318 4.2446C9.55857 3.51705 9.20163 2.84875 8.6775 2.32422C8.15336 1.79968 7.48557 1.44247 6.75858 1.29775C6.03158 1.15304 5.27803 1.22731 4.59321 1.51119C3.9084 1.79506 3.32308 2.27579 2.91127 2.89257C2.49946 3.50936 2.27965 4.2345 2.27965 4.97631C2.27965 5.97103 2.67451 6.92502 3.37735 7.62839C4.08019 8.33177 5.03345 8.72692 6.02742 8.72692Z" fill="white" />
</symbol><symbol viewBox="0 0 28 18" fill="none" id="sort">
<path d="M5.19867 0.910833C5.06555 0.781859 4.90858 0.680759 4.73676 0.613333C4.39598 0.471641 4.01375 0.471641 3.67298 0.613333C3.50116 0.680759 3.34419 0.781859 3.21107 0.910833L0.411644 3.74417C0.148073 4.01093 0 4.37274 0 4.75C0 5.12726 0.148073 5.48907 0.411644 5.75583C0.675215 6.0226 1.03269 6.17246 1.40544 6.17246C1.77819 6.17246 2.13567 6.0226 2.39924 5.75583L2.80515 5.33083V16.0833C2.80515 16.4591 2.95262 16.8194 3.21512 17.0851C3.47762 17.3507 3.83364 17.5 4.20487 17.5C4.5761 17.5 4.93212 17.3507 5.19461 17.0851C5.45711 16.8194 5.60458 16.4591 5.60458 16.0833V5.33083L6.0105 5.75583C6.14062 5.88862 6.29543 5.99401 6.466 6.06593C6.63657 6.13785 6.81952 6.17488 7.0043 6.17488C7.18907 6.17488 7.37202 6.13785 7.54259 6.06593C7.71316 5.99401 7.86797 5.88862 7.99809 5.75583C8.12928 5.62414 8.23342 5.46745 8.30448 5.29482C8.37554 5.12218 8.41212 4.93702 8.41212 4.75C8.41212 4.56298 8.37554 4.37782 8.30448 4.20518C8.23342 4.03255 8.12928 3.87586 7.99809 3.74417L5.19867 0.910833ZM12.6031 3.33333H26.6003C26.9715 3.33333 27.3275 3.18408 27.59 2.9184C27.8525 2.65272 28 2.29239 28 1.91667C28 1.54094 27.8525 1.18061 27.59 0.914932C27.3275 0.649256 26.9715 0.5 26.6003 0.5H12.6031C12.2319 0.5 11.8759 0.649256 11.6134 0.914932C11.3509 1.18061 11.2034 1.54094 11.2034 1.91667C11.2034 2.29239 11.3509 2.65272 11.6134 2.9184C11.8759 3.18408 12.2319 3.33333 12.6031 3.33333ZM26.6003 14.6667H12.6031C12.2319 14.6667 11.8759 14.8159 11.6134 15.0816C11.3509 15.3473 11.2034 15.7076 11.2034 16.0833C11.2034 16.4591 11.3509 16.8194 11.6134 17.0851C11.8759 17.3507 12.2319 17.5 12.6031 17.5H26.6003C26.9715 17.5 27.3275 17.3507 27.59 17.0851C27.8525 16.8194 28 16.4591 28 16.0833C28 15.7076 27.8525 15.3473 27.59 15.0816C27.3275 14.8159 26.9715 14.6667 26.6003 14.6667ZM26.6003 7.58333H12.6031C12.2319 7.58333 11.8759 7.73259 11.6134 7.99827C11.3509 8.26394 11.2034 8.62428 11.2034 9C11.2034 9.37572 11.3509 9.73606 11.6134 10.0017C11.8759 10.2674 12.2319 10.4167 12.6031 10.4167H26.6003C26.9715 10.4167 27.3275 10.2674 27.59 10.0017C27.8525 9.73606 28 9.37572 28 9C28 8.62428 27.8525 8.26394 27.59 7.99827C27.3275 7.73259 26.9715 7.58333 26.6003 7.58333Z" fill="currentColor" />
</symbol><symbol viewBox="0 0 14 14" fill="none" id="web">
<path d="M7.19119 0.00322859C10.8911 0.0452286 14.1693 3.13223 14.0568 7.19456C13.949 11.0562 10.6755 14.1106 6.78816 13.9776C2.92655 13.8446 -0.215688 10.5732 0.0116027 6.56456C0.217805 2.9479 3.33661 -0.113438 7.19119 0.00322859ZM5.00732 5.24156C5.00029 5.28589 4.99326 5.32323 4.99092 5.36056C4.87376 6.4479 4.8761 7.53289 4.98857 8.62023C4.99795 8.71356 5.02841 8.73689 5.12214 8.73689C6.39215 8.73456 7.65983 8.73456 8.92985 8.73456C9.05638 8.73456 9.05872 8.73456 9.07044 8.61089C9.18057 7.51889 9.18526 6.42689 9.07044 5.33489C9.06575 5.28123 9.04701 5.25789 8.99077 5.25556C8.86424 5.25556 8.74005 5.24623 8.61351 5.24623C7.43488 5.2439 6.25625 5.24156 5.07996 5.23923C5.05653 5.2369 5.03778 5.23923 5.00732 5.24156ZM4.11221 8.73456C3.99037 7.56089 3.99271 6.40356 4.11221 5.23689C4.07238 5.23689 4.03723 5.23689 4.00443 5.23689C3.28975 5.23689 2.57507 5.23689 1.86039 5.23689C1.64013 5.23689 1.41987 5.23689 1.20195 5.23689C1.15743 5.23689 1.12463 5.23923 1.11291 5.29523C1.05199 5.59623 0.965288 5.89256 0.932483 6.19356C0.838755 7.01489 0.871559 7.82923 1.09885 8.62956C1.12228 8.70889 1.14806 8.73456 1.23241 8.73456C2.15798 8.73223 3.08355 8.73223 4.00911 8.73223C4.04192 8.73456 4.07238 8.73456 4.11221 8.73456ZM9.94445 8.73456C9.98195 8.73456 10.0148 8.73456 10.0499 8.73456C10.7529 8.73456 11.4558 8.73456 12.1588 8.73456C12.3908 8.73456 12.6227 8.73456 12.8524 8.73456C12.8946 8.73456 12.932 8.73689 12.9438 8.67856C13.0047 8.37056 13.0937 8.06489 13.1265 7.75223C13.2132 6.93323 13.1828 6.12123 12.9531 5.32323C12.932 5.25323 12.9039 5.23456 12.8336 5.23456C11.8987 5.23689 10.9637 5.23689 10.0288 5.23689C10.0007 5.23689 9.97257 5.23689 9.94211 5.23689C10.064 6.40589 10.064 7.56323 9.94445 8.73456ZM7.02716 4.3479V4.34556C7.62234 4.34556 8.21751 4.34556 8.81269 4.34556C8.92985 4.34556 8.93453 4.33623 8.90876 4.22423C8.82909 3.87656 8.75645 3.5289 8.66038 3.1859C8.50104 2.61656 8.28781 2.0659 7.95976 1.5689C7.80511 1.33556 7.62937 1.1209 7.38333 0.978562C7.21228 0.875895 7.02951 0.815229 6.83971 0.903895C6.69443 0.973895 6.55149 1.06023 6.42965 1.16756C6.18361 1.38456 6.01724 1.6669 5.86728 1.95623C5.51111 2.6539 5.30725 3.40289 5.15728 4.16589C5.12214 4.34323 5.08933 4.34323 5.30022 4.34556C5.87899 4.35256 6.45308 4.3479 7.02716 4.3479ZM5.13854 9.63756C5.13854 9.66089 5.1362 9.67256 5.13854 9.68423C5.28147 10.4496 5.47362 11.1986 5.81338 11.9032C5.97272 12.2369 6.16018 12.5519 6.42965 12.8109C6.83971 13.2029 7.22165 13.2006 7.62702 12.8039C7.8754 12.5612 8.05349 12.2719 8.20814 11.9662C8.55259 11.2919 8.74239 10.5686 8.89001 9.83123C8.93453 9.60723 8.96734 9.62356 8.71896 9.62123C7.59188 9.61423 6.46245 9.61889 5.33537 9.61889C5.2721 9.62123 5.20649 9.63289 5.13854 9.63756ZM1.48548 4.33156C1.53234 4.33856 1.56281 4.3479 1.59327 4.3479C2.44854 4.35256 3.30381 4.35723 4.15908 4.3619C4.20829 4.3619 4.22703 4.34556 4.23406 4.2989C4.24812 4.20323 4.26687 4.10989 4.28561 4.01423C4.48478 3.02956 4.76363 2.07056 5.29085 1.20256C5.30491 1.17923 5.31428 1.15356 5.33537 1.10456C4.60194 1.32156 3.95053 1.64123 3.36004 2.08223C2.55398 2.67723 1.94006 3.42623 1.48548 4.33156ZM8.71661 1.0999C8.83612 1.31923 8.95094 1.51056 9.04701 1.71356C9.42895 2.53023 9.67498 3.39123 9.82261 4.27789C9.83198 4.33623 9.84604 4.36423 9.91399 4.3619C10.6732 4.35723 11.4324 4.35723 12.1916 4.3549C12.3158 4.3549 12.44 4.3549 12.5852 4.3549C12.1846 3.55223 11.6667 2.87556 10.9989 2.31556C10.3264 1.75556 9.57657 1.34723 8.71661 1.0999ZM12.5712 9.61889C12.5431 9.61423 12.5267 9.61189 12.5103 9.61189C11.6433 9.61189 10.7763 9.61189 9.90931 9.60956C9.84604 9.60956 9.83432 9.63756 9.82261 9.69123C9.757 10.0132 9.69842 10.3399 9.61406 10.6572C9.41958 11.3992 9.17354 12.1202 8.76348 12.7782C8.74942 12.7992 8.74473 12.8226 8.73302 12.8506C9.12902 12.8296 10.2889 12.2322 10.8911 11.7422C11.6058 11.1589 12.1752 10.4612 12.5712 9.61889ZM5.33537 12.8646C5.30959 12.8109 5.29319 12.7782 5.27679 12.7479C5.18775 12.5869 5.08933 12.4306 5.012 12.2649C4.62772 11.4552 4.39106 10.5989 4.24109 9.71923C4.22703 9.63523 4.20126 9.60956 4.11456 9.61189C3.27335 9.61423 2.43213 9.61423 1.59092 9.61423C1.56046 9.61423 1.52766 9.61423 1.48079 9.61423C1.86742 10.4379 2.41339 11.1146 3.09761 11.6886C3.7537 12.2322 4.49416 12.6149 5.33537 12.8646Z" fill="#0067A5" />
</symbol><symbol viewBox="0 0 24 24" fill="none" id="whatsapp">
<path d="M1.5749 22.772C1.98852 21.4759 2.33462 20.3375 2.73136 19.2166C2.91707 18.6911 2.86642 18.2795 2.57098 17.7979C-1.49774 10.9322 1.94631 2.2976 9.51817 0.379767C15.5453 -1.14399 21.7665 3.01569 22.9989 9.3997C24.2398 15.8275 20.0107 22.1327 13.8232 23.1223C11.2149 23.5426 8.80066 23.0435 6.49619 21.7649C6.14165 21.5635 5.60984 21.5197 5.2131 21.6248C4.03976 21.9225 2.89174 22.3429 1.5749 22.772ZM5.54231 8.69913C5.55076 8.82173 5.54232 9.06693 5.58452 9.29462C5.63517 9.55733 5.69426 9.82881 5.804 10.074C7.70329 14.2862 10.7084 17.1411 15.1823 18.1131C16.3556 18.3671 17.3855 17.8767 18.1705 16.9835C19.0991 15.9326 18.8543 14.8117 17.6218 14.2162C17.3348 14.0761 17.0394 13.9447 16.7524 13.8046C15.4271 13.1566 15.4018 13.1303 14.5745 14.33C14.1018 15.0043 13.6291 15.0831 12.9369 14.7329C11.3415 13.9359 10.0922 12.7712 9.14676 11.2212C8.89352 10.8009 8.80066 10.4418 9.18896 10.109C10.1091 9.32089 10.0331 8.43641 9.50129 7.46436C9.27338 7.05277 9.12143 6.58864 8.9526 6.13326C8.70781 5.48523 8.25198 5.31008 7.62732 5.41517C6.40333 5.62534 5.57608 6.87762 5.54231 8.69913Z" fill="currentColor" />
</symbol></defs><use id="arrow-usage" xlink:href="#arrow" class="sprite-symbol-usage" /><use id="clock-usage" xlink:href="#clock" class="sprite-symbol-usage" /><use id="close-usage" xlink:href="#close" class="sprite-symbol-usage" /><use id="copy-usage" xlink:href="#copy" class="sprite-symbol-usage" /><use id="download-usage" xlink:href="#download" class="sprite-symbol-usage" /><use id="expand-usage" xlink:href="#expand" class="sprite-symbol-usage" /><use id="fb-usage" xlink:href="#fb" class="sprite-symbol-usage" /><use id="inst-usage" xlink:href="#inst" class="sprite-symbol-usage" /><use id="menu-usage" xlink:href="#menu" class="sprite-symbol-usage" /><use id="phone-usage" xlink:href="#phone" class="sprite-symbol-usage" /><use id="rub-usage" xlink:href="#rub" class="sprite-symbol-usage" /><use id="search-usage" xlink:href="#search" class="sprite-symbol-usage" /><use id="sort-usage" xlink:href="#sort" class="sprite-symbol-usage" /><use id="web-usage" xlink:href="#web" class="sprite-symbol-usage" /><use id="whatsapp-usage" xlink:href="#whatsapp" class="sprite-symbol-usage" /></svg>