<svg id="Слой_1" data-name="Слой 1" xmlns="http://www.w3.org/2000/svg" viewBox="0 0 32 32">
    <path d="M16,0a15.84,15.84,0,0,1,15.6,16A15.83,15.83,0,0,1,15.9,32,15.83,15.83,0,0,1,.37,16,15.83,15.83,0,0,1,16,0Zm13,16A13.21,13.21,0,0,0,16.35,2.62,13.13,13.13,0,0,0,3,15.15,13.22,13.22,0,0,0,15.37,29.37,13.2,13.2,0,0,0,29.07,16Z"
          fill="currentColor"/>
    <path d="M16.93,11.53v2.69a.35.35,0,0,0,.15.33,1.77,1.77,0,0,1,.67,1.81,1.73,1.73,0,0,1-1.41,1.43A.65.65,0,0,0,16,18c-1.2,1.24-2.41,2.47-3.62,3.71a.92.92,0,0,1-1.07.23,1,1,0,0,1-.25-1.59l3.19-3.27a.3.3,0,0,0,.08-.39,1.79,1.79,0,0,1,.54-2.09.46.46,0,0,0,.19-.41c0-1.78,0-3.57,0-5.35a.93.93,0,0,1,1.82-.29,2,2,0,0,1,0,.48C16.94,9.85,16.93,10.69,16.93,11.53Z"
          fill="currentColor"/>
</svg>
