<svg width="9" height="9" viewBox="0 0 9 9" fill="none" xmlns="http://www.w3.org/2000/svg">
<path d="M5.18599 4.07316L8.49226 0.78497C8.65077 0.628059 8.65077 0.374046 8.49226 0.217535C8.33415 0.0606237 8.07733 0.0606237 7.91922 0.217535L4.61578 3.50293L1.28179 0.168567C1.12368 0.0100546 0.866863 0.0100546 0.708751 0.168567C0.550639 0.327479 0.550639 0.584695 0.708751 0.743207L4.04031 4.07517L0.696709 7.40029C0.538597 7.5572 0.538597 7.81121 0.696709 7.96772C0.854821 8.12463 1.11164 8.12463 1.26975 7.96772L4.61051 4.6454L7.93123 7.96652C8.08934 8.12503 8.34616 8.12503 8.50427 7.96652C8.66238 7.80761 8.66238 7.55039 8.50427 7.39188L5.18599 4.07316Z" fill="currentColor"/>
</svg>
