<svg width="32" height="32" viewBox="0 0 32 32" fill="none" xmlns="http://www.w3.org/2000/svg">
    <path d="M-0.109863 19.712C-0.0560901 19.5438 -0.0187476 19.3685 0.0544437 19.2075C0.396501 18.4565 1.22401 18.0533 2.06646 18.2143C2.89247 18.3725 3.49593 19.0622 3.5019 19.8887C3.51236 21.0671 3.50489 22.247 3.50638 23.4255C3.50638 24.7208 3.50638 26.0161 3.50788 27.3114C3.50788 27.3541 3.51236 27.3969 3.51535 27.4482C11.5485 27.4482 19.5696 27.4482 27.6117 27.4482C27.6117 27.005 27.6117 26.569 27.6117 26.1329C27.6117 24.0681 27.6087 22.0033 27.6132 19.9385C27.6147 19.0109 28.3003 18.2799 29.2413 18.1844C30.1674 18.0903 30.9905 18.6874 31.1951 19.6008C31.2011 19.6279 31.2145 19.6521 31.225 19.6778C31.225 22.921 31.225 26.1657 31.225 29.409C31.2145 29.4403 31.1996 29.4702 31.1921 29.5016C31.0069 30.3423 30.2959 30.9023 29.3937 30.9023C26.7543 30.9052 24.115 30.9038 21.4771 30.9038C17.5277 30.9038 13.5769 30.9038 9.62757 30.9038C6.99417 30.9038 4.36078 30.9052 1.72739 30.9023C0.847598 30.9009 0.139585 30.3594 -0.0605712 29.5486C-0.0755082 29.4902 -0.0934326 29.4332 -0.109863 29.3748C-0.109863 26.1557 -0.109863 22.9338 -0.109863 19.712Z"
          fill="currentColor"/>
    <path d="M15.8011 0.182617C16.0117 0.255291 16.2388 0.302316 16.4315 0.406339C17.0558 0.742634 17.3606 1.27273 17.3635 1.95244C17.3695 3.3532 17.365 4.75253 17.365 6.15328C17.365 9.61314 17.365 13.0716 17.3665 16.5314C17.3665 16.5642 17.3695 16.597 17.3725 16.6696C17.4457 16.6027 17.498 16.5571 17.5473 16.51C18.8767 15.2418 20.2016 13.9693 21.5354 12.7068C22.4197 11.8703 23.8193 12.0527 24.4123 13.0716C24.8052 13.747 24.6767 14.5678 24.0762 15.1463C23.3085 15.8859 22.5347 16.6198 21.764 17.3551C20.1478 18.8969 18.5316 20.4401 16.9169 21.982C16.0924 22.7686 15.0184 22.7643 14.1924 21.9748C11.8174 19.7048 9.44394 17.4391 7.06747 15.1748C6.59695 14.726 6.39381 14.1944 6.51928 13.5732C6.65371 12.9091 7.07792 12.456 7.75457 12.2593C8.44466 12.0584 9.06454 12.2166 9.57838 12.7025C10.3775 13.4592 11.1707 14.2201 11.9668 14.9796C12.5045 15.4926 13.0408 16.0056 13.5785 16.5186C13.6233 16.5613 13.6681 16.6012 13.7353 16.6611C13.7413 16.5898 13.7488 16.5428 13.7488 16.4972C13.7488 12.5899 13.7488 8.68262 13.7488 4.77533C13.7488 3.85052 13.7488 2.92713 13.7488 2.00232C13.7488 1.06325 14.3 0.413464 15.2679 0.208267C15.2843 0.205417 15.2978 0.192592 15.3127 0.184042C15.4755 0.182617 15.6383 0.182617 15.8011 0.182617Z"
          fill="currentColor"/>
    <path d="M-0.109863 29.3777C-0.0934326 29.4361 -0.0755082 29.4931 -0.0605712 29.5515C0.138091 30.3623 0.846105 30.9038 1.72739 30.9052C4.36078 30.9081 6.99417 30.9067 9.62757 30.9067C13.5769 30.9067 17.5277 30.9067 21.4771 30.9067C24.1165 30.9067 26.7558 30.9081 29.3937 30.9052C30.2959 30.9038 31.0069 30.3438 31.1921 29.5045C31.1996 29.4731 31.2145 29.4432 31.225 29.4119C31.225 30.0759 31.225 30.7399 31.225 31.404C20.781 31.404 10.3356 31.404 -0.10837 31.404C-0.109863 30.7285 -0.109863 30.0531 -0.109863 29.3777Z"
          fill="currentColor"/>
</svg>
