<svg width="24" height="24" viewBox="0 0 24 24" fill="none" xmlns="http://www.w3.org/2000/svg">
<path d="M8.748 13.548L2.4 19.908V18C2.4 17.6817 2.27357 17.3765 2.04853 17.1515C1.82348 16.9264 1.51826 16.8 1.2 16.8C0.88174 16.8 0.576515 16.9264 0.351472 17.1515C0.126428 17.3765 0 17.6817 0 18V22.8C0.00189598 22.9568 0.0345107 23.1117 0.0959999 23.256C0.21777 23.5492 0.450781 23.7822 0.744 23.904C0.888267 23.9655 1.04319 23.9981 1.2 24H6C6.31826 24 6.62348 23.8736 6.84853 23.6485C7.07357 23.4235 7.2 23.1183 7.2 22.8C7.2 22.4817 7.07357 22.1765 6.84853 21.9515C6.62348 21.7264 6.31826 21.6 6 21.6H4.092L10.452 15.252C10.678 15.026 10.8049 14.7196 10.8049 14.4C10.8049 14.0804 10.678 13.774 10.452 13.548C10.226 13.322 9.91956 13.1951 9.6 13.1951C9.28044 13.1951 8.97396 13.322 8.748 13.548ZM4.092 2.4H6C6.31826 2.4 6.62348 2.27357 6.84853 2.04853C7.07357 1.82348 7.2 1.51826 7.2 1.2C7.2 0.88174 7.07357 0.576515 6.84853 0.351472C6.62348 0.126428 6.31826 0 6 0H1.2C1.04319 0.00189598 0.888267 0.0345107 0.744 0.0959999C0.450781 0.21777 0.21777 0.450781 0.0959999 0.744C0.0345107 0.888267 0.00189598 1.04319 0 1.2V6C0 6.31826 0.126428 6.62348 0.351472 6.84853C0.576515 7.07357 0.88174 7.2 1.2 7.2C1.51826 7.2 1.82348 7.07357 2.04853 6.84853C2.27357 6.62348 2.4 6.31826 2.4 6V4.092L8.748 10.452C8.85956 10.5645 8.99228 10.6537 9.13851 10.7147C9.28474 10.7756 9.44159 10.807 9.6 10.807C9.75841 10.807 9.91526 10.7756 10.0615 10.7147C10.2077 10.6537 10.3404 10.5645 10.452 10.452C10.5645 10.3404 10.6537 10.2077 10.7147 10.0615C10.7756 9.91526 10.807 9.75841 10.807 9.6C10.807 9.44159 10.7756 9.28474 10.7147 9.13851C10.6537 8.99228 10.5645 8.85956 10.452 8.748L4.092 2.4ZM22.8 16.8C22.4817 16.8 22.1765 16.9264 21.9515 17.1515C21.7264 17.3765 21.6 17.6817 21.6 18V19.908L15.252 13.548C15.026 13.322 14.7196 13.1951 14.4 13.1951C14.0804 13.1951 13.774 13.322 13.548 13.548C13.322 13.774 13.1951 14.0804 13.1951 14.4C13.1951 14.7196 13.322 15.026 13.548 15.252L19.908 21.6H18C17.6817 21.6 17.3765 21.7264 17.1515 21.9515C16.9264 22.1765 16.8 22.4817 16.8 22.8C16.8 23.1183 16.9264 23.4235 17.1515 23.6485C17.3765 23.8736 17.6817 24 18 24H22.8C22.9568 23.9981 23.1117 23.9655 23.256 23.904C23.5492 23.7822 23.7822 23.5492 23.904 23.256C23.9655 23.1117 23.9981 22.9568 24 22.8V18C24 17.6817 23.8736 17.3765 23.6485 17.1515C23.4235 16.9264 23.1183 16.8 22.8 16.8ZM23.904 0.744C23.7822 0.450781 23.5492 0.21777 23.256 0.0959999C23.1117 0.0345107 22.9568 0.00189598 22.8 0H18C17.6817 0 17.3765 0.126428 17.1515 0.351472C16.9264 0.576515 16.8 0.88174 16.8 1.2C16.8 1.51826 16.9264 1.82348 17.1515 2.04853C17.3765 2.27357 17.6817 2.4 18 2.4H19.908L13.548 8.748C13.4355 8.85956 13.3463 8.99228 13.2853 9.13851C13.2244 9.28474 13.193 9.44159 13.193 9.6C13.193 9.75841 13.2244 9.91526 13.2853 10.0615C13.3463 10.2077 13.4355 10.3404 13.548 10.452C13.6596 10.5645 13.7923 10.6537 13.9385 10.7147C14.0847 10.7756 14.2416 10.807 14.4 10.807C14.5584 10.807 14.7153 10.7756 14.8615 10.7147C15.0077 10.6537 15.1404 10.5645 15.252 10.452L21.6 4.092V6C21.6 6.31826 21.7264 6.62348 21.9515 6.84853C22.1765 7.07357 22.4817 7.2 22.8 7.2C23.1183 7.2 23.4235 7.07357 23.6485 6.84853C23.8736 6.62348 24 6.31826 24 6V1.2C23.9981 1.04319 23.9655 0.888267 23.904 0.744Z" fill="currentColor"/>
</svg>
