<svg width="23" height="24" viewBox="0 0 23 24" fill="none" xmlns="http://www.w3.org/2000/svg">
<path d="M8.41931 11.6481C8.41931 12.9354 8.41931 14.0476 8.41931 15.2561C9.31409 15.2561 10.2004 15.2561 11.1459 15.2561C11.1459 17.9621 11.1459 20.5717 11.1459 23.2339C10.9095 23.2515 10.69 23.2777 10.4621 23.2777C7.95504 23.2777 5.44797 23.2952 2.94934 23.269C1.20199 23.2515 0.0286484 22.0605 0.0202071 20.2565C-0.00511682 14.5205 -0.00511621 8.77577 0.0117664 3.03979C0.0202077 1.30586 1.21043 0.0710874 2.89025 0.0623302C8.42775 0.0448157 13.9653 0.0448157 19.4943 0.0623302C21.2163 0.0710874 22.3897 1.31461 22.3897 3.10984C22.3981 8.78452 22.4066 14.468 22.3812 20.1426C22.3728 22.0692 21.2163 23.2427 19.3761 23.2602C18.0931 23.2777 16.8184 23.2602 15.4594 23.2602C15.4594 20.6155 15.4594 18.0059 15.4594 15.3437C15.5691 15.3262 15.7126 15.2561 15.8392 15.2824C17.1898 15.5714 17.8567 14.9146 18.1521 13.601C18.2956 12.9705 18.5995 12.375 18.8697 11.6656C17.6879 11.6656 16.5905 11.6656 15.4087 11.6656C15.4087 10.6411 15.3496 9.67776 15.4509 8.73198C15.4762 8.46926 15.9574 8.11897 16.2782 8.05767C16.8691 7.95259 17.4853 8.02264 18.1437 8.02264C18.1437 6.80539 18.1437 5.67571 18.1437 4.41467C16.1938 4.4497 14.1594 3.97681 12.4965 5.63192C10.8166 7.29579 11.2894 9.47634 11.1881 11.6219C10.268 11.6481 9.38162 11.6481 8.41931 11.6481Z" fill="currentColor"/>
</svg>
