<svg width="23" height="24" viewBox="0 0 23 24" fill="none" xmlns="http://www.w3.org/2000/svg">
<path d="M22.8299 11.8015C22.8299 13.1588 22.8467 14.5162 22.8299 15.8736C22.7623 19.9107 20.1709 22.9494 16.2963 23.1946C13.1899 23.3873 10.0582 23.3698 6.9602 23.1946C3.43173 22.9932 0.77272 20.331 0.553246 16.7318C0.350655 13.3953 0.342213 10.0238 0.553246 6.68725C0.789603 2.9917 3.33044 0.373294 6.86735 0.154364C10.0244 -0.0470526 13.2237 -0.0558098 16.3807 0.154364C20.2215 0.408323 22.7623 3.44708 22.8383 7.45789C22.8552 8.90283 22.8299 10.3565 22.8299 11.8015ZM11.6789 2.24734C10.3367 2.24734 8.99455 2.22983 7.66083 2.24734C4.61351 2.29113 2.57916 4.41037 2.56228 7.57173C2.54539 10.2865 2.54539 13.01 2.56228 15.7247C2.5876 18.9211 4.64728 21.0666 7.72836 21.0841C10.3536 21.1016 12.9704 21.1016 15.5957 21.0841C18.6345 21.0579 20.7111 18.9298 20.7364 15.7948C20.7617 13.0187 20.7617 10.2339 20.7364 7.45789C20.7027 4.41037 18.643 2.29113 15.7054 2.24734C14.3548 2.22983 13.0211 2.24734 11.6789 2.24734Z" fill="currentColor"/>
<path d="M11.6452 5.87282C14.7178 5.88158 17.2671 8.54378 17.2333 11.7226C17.1995 14.884 14.684 17.4674 11.6452 17.4674C8.56408 17.4674 6.03169 14.8139 6.05701 11.6263C6.08234 8.48248 8.62317 5.86407 11.6452 5.87282ZM11.6283 15.2868C13.5529 15.2868 15.1314 13.658 15.123 11.6701C15.1145 9.68222 13.5276 8.04462 11.6114 8.06213C9.72898 8.07964 8.17578 9.69097 8.1589 11.6351C8.14201 13.6317 9.7121 15.2781 11.6283 15.2868Z" fill="currentColor"/>
<path d="M17.6638 6.4946C17.3261 6.02171 16.921 5.69769 16.9716 5.47C17.0307 5.1635 17.4443 4.93581 17.6976 4.6731C17.9255 4.93581 18.3222 5.18101 18.3391 5.45249C18.3644 5.73272 17.993 6.03047 17.6638 6.4946Z" fill="currentColor"/>
</svg>
