<svg width="14" height="15" viewBox="0 0 14 15" fill="none" xmlns="http://www.w3.org/2000/svg">
<path d="M11.9718 8.14022C11.8251 8.14022 11.6718 8.09356 11.5251 8.06022C11.2281 7.99477 10.9362 7.90788 10.6518 7.80022C10.3425 7.68771 10.0026 7.69355 9.69733 7.81663C9.3921 7.9397 9.14318 8.17131 8.99845 8.46689L8.85179 8.76689C8.20245 8.40567 7.60578 7.95704 7.07845 7.43356C6.55497 6.90623 6.10633 6.30955 5.74512 5.66022L6.02512 5.47356C6.3207 5.32883 6.55231 5.07991 6.67538 4.77468C6.79846 4.46946 6.8043 4.1295 6.69179 3.82022C6.58593 3.53517 6.49908 3.24342 6.43179 2.94689C6.39845 2.80022 6.37179 2.64689 6.35179 2.49356C6.27083 2.02397 6.02487 1.59872 5.6582 1.29438C5.29153 0.990046 4.82825 0.826628 4.35179 0.833555H2.35179C2.06447 0.830857 1.77995 0.890097 1.51759 1.00724C1.25523 1.12439 1.02119 1.29669 0.831406 1.51241C0.64162 1.72813 0.500542 1.98222 0.417778 2.25736C0.335014 2.53251 0.312506 2.82226 0.351786 3.10689C0.706945 5.89981 1.98247 8.49481 3.97689 10.482C5.9713 12.4692 8.57093 13.7352 11.3651 14.0802H11.6185C12.1101 14.0809 12.5847 13.9006 12.9518 13.5736C13.1627 13.3849 13.3312 13.1537 13.4461 12.8951C13.561 12.6365 13.6198 12.3565 13.6185 12.0736V10.0736C13.6103 9.61048 13.4417 9.16459 13.1413 8.812C12.841 8.45941 12.4277 8.22197 11.9718 8.14022ZM12.3051 12.1402C12.305 12.2349 12.2847 12.3284 12.2456 12.4146C12.2066 12.5008 12.1496 12.5777 12.0785 12.6402C12.0054 12.7068 11.9184 12.7563 11.8239 12.7851C11.7293 12.8139 11.6296 12.8214 11.5318 12.8069C9.03505 12.4868 6.71594 11.3445 4.94026 9.56042C3.16458 7.77629 2.03339 5.45178 1.72512 2.95356C1.71451 2.8559 1.72381 2.75711 1.75245 2.66315C1.7811 2.56919 1.8285 2.48201 1.89179 2.40689C1.95426 2.33578 2.03116 2.27878 2.11737 2.2397C2.20358 2.20062 2.29713 2.18034 2.39179 2.18022H4.39179C4.54682 2.17677 4.6982 2.22747 4.81988 2.3236C4.94156 2.41973 5.02593 2.55527 5.05845 2.70689C5.08512 2.88911 5.11845 3.06911 5.15845 3.24689C5.23547 3.59832 5.33796 3.94367 5.46512 4.28022L4.53179 4.71356C4.45198 4.75017 4.3802 4.80219 4.32056 4.86662C4.26091 4.93105 4.21459 5.00663 4.18423 5.08902C4.15388 5.17141 4.1401 5.25898 4.14368 5.3467C4.14727 5.43443 4.16815 5.52059 4.20512 5.60022C5.16459 7.65539 6.81662 9.30742 8.87179 10.2669C9.03409 10.3336 9.21615 10.3336 9.37845 10.2669C9.46159 10.2372 9.538 10.1912 9.60323 10.1317C9.66847 10.0722 9.72123 10.0003 9.75845 9.92022L10.1718 8.98689C10.5164 9.11014 10.8682 9.21255 11.2251 9.29356C11.4029 9.33356 11.5829 9.36689 11.7651 9.39356C11.9167 9.42608 12.0523 9.51045 12.1484 9.63213C12.2445 9.75381 12.2952 9.90519 12.2918 10.0602L12.3051 12.1402ZM11.6785 6.14022C11.8553 6.14022 12.0248 6.06998 12.1499 5.94496C12.2749 5.81994 12.3451 5.65037 12.3451 5.47356V2.80689C12.3451 2.63008 12.2749 2.46051 12.1499 2.33548C12.0248 2.21046 11.8553 2.14022 11.6785 2.14022C11.5016 2.14022 11.3321 2.21046 11.207 2.33548C11.082 2.46051 11.0118 2.63008 11.0118 2.80689V5.47356C11.0118 5.65037 11.082 5.81994 11.207 5.94496C11.3321 6.06998 11.5016 6.14022 11.6785 6.14022ZM9.01179 6.14022C9.1886 6.14022 9.35817 6.06998 9.48319 5.94496C9.60822 5.81994 9.67845 5.65037 9.67845 5.47356V2.80689C9.67845 2.63008 9.60822 2.46051 9.48319 2.33548C9.35817 2.21046 9.1886 2.14022 9.01179 2.14022C8.83498 2.14022 8.66541 2.21046 8.54038 2.33548C8.41536 2.46051 8.34512 2.63008 8.34512 2.80689V5.47356C8.34512 5.65037 8.41536 5.81994 8.54038 5.94496C8.66541 6.06998 8.83498 6.14022 9.01179 6.14022Z" fill="#0067A5"/>
</svg>
