<svg width="11" height="11" viewBox="0 0 11 11" fill="none" xmlns="http://www.w3.org/2000/svg">
<path d="M0.293333 9.95391L2.27965 7.98216C1.50863 7.02008 1.13524 5.79892 1.23627 4.56979C1.33729 3.34066 1.90505 2.19698 2.8228 1.37391C3.74055 0.550847 4.93853 0.110955 6.17042 0.144689C7.4023 0.178424 8.57445 0.68322 9.44585 1.55528C10.3173 2.42734 10.8217 3.60039 10.8554 4.83321C10.8891 6.06603 10.4495 7.26492 9.62708 8.18336C8.80464 9.10181 7.66183 9.67 6.43363 9.7711C5.20543 9.8722 3.9852 9.49853 3.02385 8.72692L1.05359 10.6987C1.00382 10.7489 0.944609 10.7888 0.879365 10.816C0.814122 10.8432 0.744143 10.8572 0.673465 10.8572C0.602786 10.8572 0.532806 10.8432 0.467564 10.816C0.402321 10.7888 0.343105 10.7489 0.293333 10.6987C0.196834 10.5988 0.142893 10.4653 0.142893 10.3263C0.142893 10.1873 0.196834 10.0538 0.293333 9.95391ZM6.02742 8.72692C6.76866 8.72692 7.49326 8.50696 8.10957 8.09483C8.72589 7.68271 9.20625 7.09694 9.48991 6.41161C9.77357 5.72627 9.84779 4.97215 9.70318 4.2446C9.55857 3.51705 9.20163 2.84875 8.6775 2.32422C8.15336 1.79968 7.48557 1.44247 6.75858 1.29775C6.03158 1.15304 5.27803 1.22731 4.59321 1.51119C3.9084 1.79506 3.32308 2.27579 2.91127 2.89257C2.49946 3.50936 2.27965 4.2345 2.27965 4.97631C2.27965 5.97103 2.67451 6.92502 3.37735 7.62839C4.08019 8.33177 5.03345 8.72692 6.02742 8.72692Z" fill="currentColor"/>
</svg>
