<svg width="28" height="18" viewBox="0 0 28 18" fill="none" xmlns="http://www.w3.org/2000/svg">
<path d="M5.19867 0.910833C5.06555 0.781859 4.90858 0.680759 4.73676 0.613333C4.39598 0.471641 4.01375 0.471641 3.67298 0.613333C3.50116 0.680759 3.34419 0.781859 3.21107 0.910833L0.411644 3.74417C0.148073 4.01093 0 4.37274 0 4.75C0 5.12726 0.148073 5.48907 0.411644 5.75583C0.675215 6.0226 1.03269 6.17246 1.40544 6.17246C1.77819 6.17246 2.13567 6.0226 2.39924 5.75583L2.80515 5.33083V16.0833C2.80515 16.4591 2.95262 16.8194 3.21512 17.0851C3.47762 17.3507 3.83364 17.5 4.20487 17.5C4.5761 17.5 4.93212 17.3507 5.19461 17.0851C5.45711 16.8194 5.60458 16.4591 5.60458 16.0833V5.33083L6.0105 5.75583C6.14062 5.88862 6.29543 5.99401 6.466 6.06593C6.63657 6.13785 6.81952 6.17488 7.0043 6.17488C7.18907 6.17488 7.37202 6.13785 7.54259 6.06593C7.71316 5.99401 7.86797 5.88862 7.99809 5.75583C8.12928 5.62414 8.23342 5.46745 8.30448 5.29482C8.37554 5.12218 8.41212 4.93702 8.41212 4.75C8.41212 4.56298 8.37554 4.37782 8.30448 4.20518C8.23342 4.03255 8.12928 3.87586 7.99809 3.74417L5.19867 0.910833ZM12.6031 3.33333H26.6003C26.9715 3.33333 27.3275 3.18408 27.59 2.9184C27.8525 2.65272 28 2.29239 28 1.91667C28 1.54094 27.8525 1.18061 27.59 0.914932C27.3275 0.649256 26.9715 0.5 26.6003 0.5H12.6031C12.2319 0.5 11.8759 0.649256 11.6134 0.914932C11.3509 1.18061 11.2034 1.54094 11.2034 1.91667C11.2034 2.29239 11.3509 2.65272 11.6134 2.9184C11.8759 3.18408 12.2319 3.33333 12.6031 3.33333ZM26.6003 14.6667H12.6031C12.2319 14.6667 11.8759 14.8159 11.6134 15.0816C11.3509 15.3473 11.2034 15.7076 11.2034 16.0833C11.2034 16.4591 11.3509 16.8194 11.6134 17.0851C11.8759 17.3507 12.2319 17.5 12.6031 17.5H26.6003C26.9715 17.5 27.3275 17.3507 27.59 17.0851C27.8525 16.8194 28 16.4591 28 16.0833C28 15.7076 27.8525 15.3473 27.59 15.0816C27.3275 14.8159 26.9715 14.6667 26.6003 14.6667ZM26.6003 7.58333H12.6031C12.2319 7.58333 11.8759 7.73259 11.6134 7.99827C11.3509 8.26394 11.2034 8.62428 11.2034 9C11.2034 9.37572 11.3509 9.73606 11.6134 10.0017C11.8759 10.2674 12.2319 10.4167 12.6031 10.4167H26.6003C26.9715 10.4167 27.3275 10.2674 27.59 10.0017C27.8525 9.73606 28 9.37572 28 9C28 8.62428 27.8525 8.26394 27.59 7.99827C27.3275 7.73259 26.9715 7.58333 26.6003 7.58333Z" fill="currentColor"/>
</svg>
