<svg width="23" height="20" viewBox="0 0 23 20" fill="none" xmlns="http://www.w3.org/2000/svg">
<path d="M0.684143 16.997C3.06459 17.0933 5.1496 16.6117 7.08266 15.0792C5.12427 14.6851 3.68081 13.7743 3.02239 11.7689C3.60484 11.7339 4.09443 11.7076 4.83727 11.6639C2.67629 10.7356 1.47763 9.31692 1.35945 6.99626C1.9419 7.14513 2.45682 7.27649 2.98018 7.40785C1.42698 5.5338 0.903619 3.55467 2.01787 1.16395C4.55871 4.11513 7.59758 5.84031 11.354 6.05924C11.4215 5.24481 11.3708 4.48294 11.5566 3.7736C12.3585 0.638517 15.8869 -0.797668 18.4447 1.09389C19.3394 1.75068 20.0063 1.60181 20.8167 1.28655C21.2219 1.12892 21.6017 0.918747 21.99 0.726089C22.0575 0.787389 22.1251 0.848689 22.201 0.901233C21.6777 1.6456 21.1543 2.3812 20.6056 3.1606C21.2556 2.98545 21.9225 2.80155 22.8595 2.54759C22.2433 3.23941 21.8465 3.79112 21.3485 4.21146C20.7829 4.68435 20.5634 5.18352 20.5381 5.96291C20.3693 12.2681 16.0558 17.6363 10.2819 18.8185C6.87162 19.5191 3.08148 18.8273 0.684143 16.997Z" fill="currentColor"/>
</svg>
