<svg width="14" height="14" viewBox="0 0 14 14" fill="none" xmlns="http://www.w3.org/2000/svg">
<path d="M7.19119 0.00322859C10.8911 0.0452286 14.1693 3.13223 14.0568 7.19456C13.949 11.0562 10.6755 14.1106 6.78816 13.9776C2.92655 13.8446 -0.215688 10.5732 0.0116027 6.56456C0.217805 2.9479 3.33661 -0.113438 7.19119 0.00322859ZM5.00732 5.24156C5.00029 5.28589 4.99326 5.32323 4.99092 5.36056C4.87376 6.4479 4.8761 7.53289 4.98857 8.62023C4.99795 8.71356 5.02841 8.73689 5.12214 8.73689C6.39215 8.73456 7.65983 8.73456 8.92985 8.73456C9.05638 8.73456 9.05872 8.73456 9.07044 8.61089C9.18057 7.51889 9.18526 6.42689 9.07044 5.33489C9.06575 5.28123 9.04701 5.25789 8.99077 5.25556C8.86424 5.25556 8.74005 5.24623 8.61351 5.24623C7.43488 5.2439 6.25625 5.24156 5.07996 5.23923C5.05653 5.2369 5.03778 5.23923 5.00732 5.24156ZM4.11221 8.73456C3.99037 7.56089 3.99271 6.40356 4.11221 5.23689C4.07238 5.23689 4.03723 5.23689 4.00443 5.23689C3.28975 5.23689 2.57507 5.23689 1.86039 5.23689C1.64013 5.23689 1.41987 5.23689 1.20195 5.23689C1.15743 5.23689 1.12463 5.23923 1.11291 5.29523C1.05199 5.59623 0.965288 5.89256 0.932483 6.19356C0.838755 7.01489 0.871559 7.82923 1.09885 8.62956C1.12228 8.70889 1.14806 8.73456 1.23241 8.73456C2.15798 8.73223 3.08355 8.73223 4.00911 8.73223C4.04192 8.73456 4.07238 8.73456 4.11221 8.73456ZM9.94445 8.73456C9.98195 8.73456 10.0148 8.73456 10.0499 8.73456C10.7529 8.73456 11.4558 8.73456 12.1588 8.73456C12.3908 8.73456 12.6227 8.73456 12.8524 8.73456C12.8946 8.73456 12.932 8.73689 12.9438 8.67856C13.0047 8.37056 13.0937 8.06489 13.1265 7.75223C13.2132 6.93323 13.1828 6.12123 12.9531 5.32323C12.932 5.25323 12.9039 5.23456 12.8336 5.23456C11.8987 5.23689 10.9637 5.23689 10.0288 5.23689C10.0007 5.23689 9.97257 5.23689 9.94211 5.23689C10.064 6.40589 10.064 7.56323 9.94445 8.73456ZM7.02716 4.3479V4.34556C7.62234 4.34556 8.21751 4.34556 8.81269 4.34556C8.92985 4.34556 8.93453 4.33623 8.90876 4.22423C8.82909 3.87656 8.75645 3.5289 8.66038 3.1859C8.50104 2.61656 8.28781 2.0659 7.95976 1.5689C7.80511 1.33556 7.62937 1.1209 7.38333 0.978562C7.21228 0.875895 7.02951 0.815229 6.83971 0.903895C6.69443 0.973895 6.55149 1.06023 6.42965 1.16756C6.18361 1.38456 6.01724 1.6669 5.86728 1.95623C5.51111 2.6539 5.30725 3.40289 5.15728 4.16589C5.12214 4.34323 5.08933 4.34323 5.30022 4.34556C5.87899 4.35256 6.45308 4.3479 7.02716 4.3479ZM5.13854 9.63756C5.13854 9.66089 5.1362 9.67256 5.13854 9.68423C5.28147 10.4496 5.47362 11.1986 5.81338 11.9032C5.97272 12.2369 6.16018 12.5519 6.42965 12.8109C6.83971 13.2029 7.22165 13.2006 7.62702 12.8039C7.8754 12.5612 8.05349 12.2719 8.20814 11.9662C8.55259 11.2919 8.74239 10.5686 8.89001 9.83123C8.93453 9.60723 8.96734 9.62356 8.71896 9.62123C7.59188 9.61423 6.46245 9.61889 5.33537 9.61889C5.2721 9.62123 5.20649 9.63289 5.13854 9.63756ZM1.48548 4.33156C1.53234 4.33856 1.56281 4.3479 1.59327 4.3479C2.44854 4.35256 3.30381 4.35723 4.15908 4.3619C4.20829 4.3619 4.22703 4.34556 4.23406 4.2989C4.24812 4.20323 4.26687 4.10989 4.28561 4.01423C4.48478 3.02956 4.76363 2.07056 5.29085 1.20256C5.30491 1.17923 5.31428 1.15356 5.33537 1.10456C4.60194 1.32156 3.95053 1.64123 3.36004 2.08223C2.55398 2.67723 1.94006 3.42623 1.48548 4.33156ZM8.71661 1.0999C8.83612 1.31923 8.95094 1.51056 9.04701 1.71356C9.42895 2.53023 9.67498 3.39123 9.82261 4.27789C9.83198 4.33623 9.84604 4.36423 9.91399 4.3619C10.6732 4.35723 11.4324 4.35723 12.1916 4.3549C12.3158 4.3549 12.44 4.3549 12.5852 4.3549C12.1846 3.55223 11.6667 2.87556 10.9989 2.31556C10.3264 1.75556 9.57657 1.34723 8.71661 1.0999ZM12.5712 9.61889C12.5431 9.61423 12.5267 9.61189 12.5103 9.61189C11.6433 9.61189 10.7763 9.61189 9.90931 9.60956C9.84604 9.60956 9.83432 9.63756 9.82261 9.69123C9.757 10.0132 9.69842 10.3399 9.61406 10.6572C9.41958 11.3992 9.17354 12.1202 8.76348 12.7782C8.74942 12.7992 8.74473 12.8226 8.73302 12.8506C9.12902 12.8296 10.2889 12.2322 10.8911 11.7422C11.6058 11.1589 12.1752 10.4612 12.5712 9.61889ZM5.33537 12.8646C5.30959 12.8109 5.29319 12.7782 5.27679 12.7479C5.18775 12.5869 5.08933 12.4306 5.012 12.2649C4.62772 11.4552 4.39106 10.5989 4.24109 9.71923C4.22703 9.63523 4.20126 9.60956 4.11456 9.61189C3.27335 9.61423 2.43213 9.61423 1.59092 9.61423C1.56046 9.61423 1.52766 9.61423 1.48079 9.61423C1.86742 10.4379 2.41339 11.1146 3.09761 11.6886C3.7537 12.2322 4.49416 12.6149 5.33537 12.8646Z" fill="#0067A5"/>
</svg>
