<svg width="24" height="24" viewBox="0 0 24 24" fill="none" xmlns="http://www.w3.org/2000/svg">
<path d="M1.5749 22.772C1.98852 21.4759 2.33462 20.3375 2.73136 19.2166C2.91707 18.6911 2.86642 18.2795 2.57098 17.7979C-1.49774 10.9322 1.94631 2.2976 9.51817 0.379767C15.5453 -1.14399 21.7665 3.01569 22.9989 9.3997C24.2398 15.8275 20.0107 22.1327 13.8232 23.1223C11.2149 23.5426 8.80066 23.0435 6.49619 21.7649C6.14165 21.5635 5.60984 21.5197 5.2131 21.6248C4.03976 21.9225 2.89174 22.3429 1.5749 22.772ZM5.54231 8.69913C5.55076 8.82173 5.54232 9.06693 5.58452 9.29462C5.63517 9.55733 5.69426 9.82881 5.804 10.074C7.70329 14.2862 10.7084 17.1411 15.1823 18.1131C16.3556 18.3671 17.3855 17.8767 18.1705 16.9835C19.0991 15.9326 18.8543 14.8117 17.6218 14.2162C17.3348 14.0761 17.0394 13.9447 16.7524 13.8046C15.4271 13.1566 15.4018 13.1303 14.5745 14.33C14.1018 15.0043 13.6291 15.0831 12.9369 14.7329C11.3415 13.9359 10.0922 12.7712 9.14676 11.2212C8.89352 10.8009 8.80066 10.4418 9.18896 10.109C10.1091 9.32089 10.0331 8.43641 9.50129 7.46436C9.27338 7.05277 9.12143 6.58864 8.9526 6.13326C8.70781 5.48523 8.25198 5.31008 7.62732 5.41517C6.40333 5.62534 5.57608 6.87762 5.54231 8.69913Z" fill="currentColor"/>
</svg>
