<svg width="23" height="17" viewBox="0 0 23 17" fill="none" xmlns="http://www.w3.org/2000/svg">
<path d="M11.4181 0.843984C13.9842 0.843984 16.5419 0.808956 19.1081 0.852742C20.8555 0.887771 21.6996 1.5358 22.0879 3.30476C22.8645 6.85144 22.8982 10.4331 22.0963 13.9798C21.6827 15.7926 20.8555 16.4669 19.0575 16.4756C13.9927 16.5107 8.92787 16.5107 3.85465 16.4756C2.01444 16.4669 1.2294 15.775 0.756687 13.9185C0.106706 11.3439 0.140475 8.70797 0.351507 6.08956C0.444362 4.93361 0.689154 3.7689 1.01837 2.65673C1.36446 1.4745 2.25925 0.861499 3.46635 0.852742C6.11692 0.843984 8.76749 0.852742 11.4181 0.852742V0.843984ZM8.65775 13.0078C11.0298 11.5278 13.2583 10.1354 15.6134 8.66418C13.2076 7.17546 10.9791 5.79181 8.65775 4.35563C8.65775 7.2893 8.65775 10.0566 8.65775 13.0078Z" fill="currentColor"/>
</svg>
